<svg width="500" height="500" viewBox="0 0 500 500" fill="none" xmlns="http://www.w3.org/2000/svg">
<g clip-path="url(#clip0_1034_4)">
<path d="M500 0H0V500H500V0Z" fill="white"/>
<path d="M20 5H30M50 5H90M100 5H150M160 5H180M190 5H200M210 5H240M260 5H270M280 5H290M300 5H310M320 5H340M370 5H380M390 5H400M430 5H440M450 5H470M480 5H500M20 15H30M70 15H90M100 15H110M130 15H140M150 15H160M170 15H180M200 15H210M250 15H280M290 15H360M370 15H380M390 15H400M410 15H420M430 15H460M0 25H20M30 25H40M50 25H60M70 25H80M110 25H120M140 25H150M190 25H200M210 25H220M250 25H310M320 25H350M370 25H380M390 25H460M470 25H490M10 35H30M50 35H70M100 35H150M160 35H180M190 35H220M300 35H330M370 35H390M410 35H430M440 35H460M10 45H20M40 45H60M70 45H80M90 45H110M170 45H180M190 45H220M240 45H270M280 45H300M310 45H320M340 45H350M360 45H390M450 45H460M490 45H500M60 55H70M100 55H110M130 55H150M170 55H180M240 55H260M290 55H300M310 55H320M340 55H350M370 55H390M430 55H470M480 55H490M10 65H30M40 65H50M60 65H90M100 65H120M130 65H140M160 65H210M220 65H240M260 65H270M280 65H290M300 65H310M330 65H350M360 65H370M380 65H440M490 65H500M30 75H50M60 75H80M90 75H100M120 75H140M170 75H190M200 75H220M260 75H280M290 75H310M330 75H370M380 75H400M410 75H430M450 75H470M480 75H490M0 85H10M20 85H70M90 85H130M160 85H180M190 85H200M220 85H240M260 85H310M320 85H330M340 85H350M370 85H380M400 85H430M460 85H470M490 85H500M10 95H30M60 95H80M120 95H140M150 95H160M180 95H190M200 95H210M220 95H230M250 95H260M290 95H310M320 95H370M410 95H430M440 95H450M460 95H470M480 95H490M10 105H30M50 105H70M90 105H110M120 105H170M180 105H210M240 105H280M290 105H310M350 105H360M370 105H420M470 105H500M0 115H10M20 115H40M60 115H70M90 115H100M110 115H120M130 115H170M180 115H190M210 115H230M270 115H290M300 115H310M330 115H340M360 115H400M410 115H440M450 115H460M490 115H500M0 125H30M50 125H60M70 125H90M100 125H110M120 125H160M170 125H190M200 125H260M270 125H280M290 125H320M340 125H380M390 125H400M410 125H450M470 125H500M0 135H10M30 135H40M50 135H80M150 135H200M220 135H230M250 135H260M310 135H320M330 135H340M350 135H370M380 135H410M420 135H430M450 135H480M490 135H500M0 145H30M40 145H50M80 145H100M150 145H230M250 145H260M320 145H330M380 145H390M420 145H430M440 145H450M460 145H480M20 155H40M50 155H60M90 155H140M150 155H220M280 155H290M320 155H340M350 155H380M400 155H430M450 155H460M470 155H480M490 155H500M0 165H20M60 165H70M80 165H90M130 165H140M150 165H160M180 165H200M210 165H230M260 165H270M280 165H340M350 165H390M410 165H420M430 165H440M450 165H460M480 165H490M10 175H20M30 175H60M70 175H80M90 175H120M130 175H140M150 175H160M170 175H180M190 175H210M220 175H240M260 175H270M280 175H300M330 175H370M390 175H400M420 175H440M450 175H500M0 185H20M30 185H50M90 185H110M120 185H130M140 185H170M190 185H200M210 185H220M230 185H240M260 185H270M290 185H300M310 185H320M360 185H370M380 185H420M430 185H450M480 185H500M0 195H10M20 195H30M50 195H60M90 195H140M150 195H160M230 195H270M290 195H300M310 195H320M340 195H350M370 195H390M400 195H450M470 195H480M490 195H500M10 205H40M50 205H70M90 205H110M130 205H140M170 205H180M210 205H220M270 205H290M300 205H310M340 205H360M380 205H390M400 205H420M430 205H440M450 205H480M490 205H500M0 215H10M30 215H40M100 215H130M140 215H180M190 215H200M220 215H230M240 215H250M260 215H270M320 215H330M360 215H370M380 215H390M30 225H40M60 225H70M80 225H90M100 225H110M140 225H180M190 225H220M230 225H250M290 225H300M310 225H340M350 225H360M370 225H390M420 225H440M460 225H470M480 225H490M10 235H30M40 235H80M90 235H110M120 235H130M140 235H160M170 235H180M200 235H210M230 235H240M250 235H270M300 235H320M330 235H360M370 235H390M410 235H420M430 235H470M0 245H10M30 245H50M60 245H70M80 245H100M110 245H130M140 245H150M170 245H180M200 245H210M220 245H230M250 245H300M320 245H330M340 245H370M390 245H400M460 245H470M20 255H30M60 255H70M80 255H100M160 255H180M230 255H250M260 255H280M300 255H310M330 255H360M370 255H390M420 255H430M440 255H460M470 255H480M40 265H50M70 265H90M100 265H110M120 265H210M220 265H240M260 265H270M280 265H290M320 265H370M390 265H400M420 265H460M470 265H490M0 275H10M30 275H60M110 275H140M180 275H200M220 275H250M280 275H290M340 275H380M390 275H410M430 275H440M450 275H470M480 275H500M50 285H70M100 285H110M130 285H140M160 285H170M180 285H190M200 285H210M220 285H330M440 285H460M0 295H30M50 295H70M120 295H140M160 295H170M180 295H220M260 295H280M310 295H320M330 295H340M370 295H380M390 295H430M470 295H480M490 295H500M40 305H50M70 305H90M110 305H130M170 305H190M200 305H220M240 305H270M280 305H300M310 305H340M370 305H400M410 305H420M450 305H470M480 305H500M50 315H60M80 315H90M110 315H120M160 315H180M200 315H250M300 315H320M330 315H350M400 315H410M420 315H430M450 315H460M480 315H490M0 325H30M50 325H60M100 325H110M130 325H140M150 325H160M170 325H180M200 325H230M240 325H250M260 325H270M290 325H380M390 325H410M420 325H430M450 325H470M480 325H500M20 335H30M40 335H50M60 335H90M100 335H130M150 335H160M180 335H190M210 335H220M230 335H270M280 335H300M320 335H330M340 335H370M410 335H420M430 335H440M460 335H470M490 335H500M20 345H40M110 345H140M150 345H160M170 345H180M190 345H210M230 345H250M280 345H290M340 345H350M390 345H430M450 345H460M470 345H500M10 355H50M60 355H70M90 355H100M120 355H150M160 355H200M210 355H220M230 355H260M270 355H290M320 355H360M370 355H380M400 355H430M440 355H460M470 355H500M10 365H30M80 365H100M110 365H140M160 365H190M200 365H210M230 365H260M270 365H320M340 365H350M370 365H420M430 365H440M460 365H500M20 375H30M40 375H50M80 375H90M100 375H110M120 375H140M180 375H190M240 375H260M270 375H320M340 375H350M360 375H370M390 375H410M430 375H460M490 375H500M20 385H30M50 385H70M80 385H90M120 385H130M150 385H190M220 385H230M240 385H250M280 385H330M360 385H370M430 385H440M450 385H480M0 395H10M20 395H30M40 395H50M60 395H70M100 395H120M130 395H140M170 395H190M250 395H270M290 395H320M340 395H350M360 395H390M410 395H420M460 395H470M0 405H50M60 405H90M100 405H120M140 405H160M200 405H220M230 405H280M290 405H300M320 405H330M350 405H370M420 405H430M440 405H470M480 405H500M10 415H40M80 415H130M170 415H190M210 415H230M240 415H270M310 415H330M340 415H350M400 415H450M480 415H500M0 425H40M50 425H80M90 425H130M140 425H170M180 425H210M230 425H260M270 425H280M300 425H390M410 425H430M440 425H460M470 425H480M490 425H500M30 435H50M60 435H90M100 435H110M130 435H140M150 435H160M180 435H200M250 435H260M280 435H300M310 435H320M340 435H350M360 435H380M390 435H440M460 435H470M490 435H500M30 445H40M60 445H70M100 445H110M120 445H130M170 445H180M210 445H230M240 445H250M290 445H300M310 445H380M390 445H400M480 445H500M10 455H20M30 455H60M70 455H80M90 455H100M110 455H120M150 455H160M170 455H180M190 455H200M220 455H250M260 455H280M300 455H310M340 455H350M360 455H370M380 455H420M490 455H500M0 465H10M40 465H50M70 465H80M100 465H120M130 465H170M200 465H210M230 465H240M250 465H260M270 465H290M300 465H320M340 465H350M390 465H400M440 465H450M490 465H500M0 475H10M20 475H30M70 475H80M110 475H120M130 475H160M170 475H180M220 475H230M250 475H260M290 475H310M350 475H360M370 475H380M390 475H410M420 475H440M480 475H490M0 485H40M60 485H80M90 485H100M120 485H150M160 485H180M190 485H200M210 485H220M230 485H240M250 485H260M280 485H290M310 485H360M380 485H390M400 485H450M460 485H490M20 495H50M60 495H110M150 495H170M180 495H210M220 495H230M280 495H300M320 495H330M340 495H370M390 495H400M410 495H440M460 495H480M490 495H500" stroke="black" stroke-width="10"/>
<path d="M232.679 80C240.377 66.6667 259.623 66.6667 267.321 80L414.545 335C422.243 348.333 412.62 365 397.224 365H102.776C87.3797 365 77.7572 348.333 85.4552 335L232.679 80Z" fill="#808080"/>
<path d="M252.5 188.727L251.648 251.455H241.761L240.909 188.727H252.5ZM246.705 276.682C244.602 276.682 242.798 275.929 241.293 274.423C239.787 272.918 239.034 271.114 239.034 269.011C239.034 266.909 239.787 265.105 241.293 263.599C242.798 262.094 244.602 261.341 246.705 261.341C248.807 261.341 250.611 262.094 252.116 263.599C253.622 265.105 254.375 266.909 254.375 269.011C254.375 270.403 254.02 271.682 253.31 272.847C252.628 274.011 251.705 274.949 250.54 275.659C249.403 276.341 248.125 276.682 246.705 276.682Z" fill="white"/>
</g>
<defs>
<clipPath id="clip0_1034_4">
<rect width="500" height="500" fill="white"/>
</clipPath>
</defs>
</svg>
