<svg width="1234" height="916" viewBox="0 0 1234 916" fill="none" xmlns="http://www.w3.org/2000/svg">
<rect width="1234" height="915.167" rx="135.799" fill="#18181B"/>
<path d="M527.491 436.918C550.216 397.556 607.03 397.556 629.756 436.919L783.154 702.612C805.88 741.974 777.473 791.177 732.022 791.177H425.225C379.773 791.177 351.366 741.974 374.092 702.612L527.491 436.918Z" fill="#3F3F46"/>
<path d="M781.373 277.502C804.099 238.14 860.913 238.14 883.639 277.502L1129.08 702.612C1151.8 741.974 1123.39 791.177 1077.94 791.177H587.069C541.617 791.177 513.21 741.974 535.936 702.612L781.373 277.502Z" fill="#27272A"/>
<circle cx="543.197" cy="224.364" r="70.8517" fill="#A1A1AA"/>
<rect x="808.891" y="366.067" width="47.2345" height="236.172" rx="23.6172" fill="#E4E4E7"/>
<circle cx="23.6172" cy="23.6172" r="23.6172" transform="matrix(1 0 0 -1 808.891 696.708)" fill="#E4E4E7"/>
<path d="M230.167 519.343L230.167 538.189L254.469 538.189L254.469 564.31L230.167 564.31L230.167 626.636L212.147 626.636L138.744 572.08L138.744 543.976L208.344 594.564L208.344 563.483L186.687 563.483L186.687 538.189L208.344 538.189L208.344 519.343L230.167 519.343ZM256.453 461.736C256.453 471.325 254.083 479.866 249.344 487.361C244.605 494.855 237.771 500.752 228.844 505.05C219.807 509.238 209.061 511.332 196.607 511.332C184.152 511.332 173.462 509.238 164.534 505.05C155.497 500.752 148.608 494.855 143.869 487.361C139.13 479.866 136.76 471.325 136.76 461.736C136.76 452.148 139.13 443.606 143.869 436.112C148.608 428.617 155.497 422.776 164.534 418.588C173.462 414.289 184.152 412.14 196.607 412.14C209.061 412.14 219.807 414.289 228.844 418.588C237.771 422.776 244.605 428.617 249.344 436.112C254.083 443.606 256.453 452.148 256.453 461.736ZM233.804 461.736C233.804 454.683 230.773 449.172 224.711 445.204C218.649 441.126 209.281 439.087 196.607 439.087C183.932 439.087 174.564 441.126 168.502 445.204C162.44 449.172 159.409 454.683 159.409 461.736C159.409 468.68 162.44 474.19 168.502 478.268C174.564 482.236 183.932 484.22 196.607 484.22C209.281 484.22 218.649 482.236 224.711 478.268C230.773 474.19 233.804 468.68 233.804 461.736ZM230.167 293.157L230.167 312.004L254.469 312.004L254.469 338.124L230.167 338.124L230.167 400.45L212.147 400.45L138.744 345.894L138.744 317.79L208.344 368.378L208.344 337.298L186.687 337.298L186.687 312.004L208.344 312.004L208.344 293.157L230.167 293.157Z" fill="#E4E4E7"/>
</svg>
