<svg width="24" height="24" viewBox="0 0 24 24" fill="none" xmlns="http://www.w3.org/2000/svg">
<path d="M11.9863 10.2735C11.7594 10.2771 11.543 10.3705 11.3848 10.5335C11.2265 10.6963 11.1395 10.9154 11.1425 11.1425V17.1425C11.1393 17.3719 11.2283 17.5931 11.3894 17.7565C11.5505 17.9198 11.7703 18.0117 11.9997 18.0117C12.2293 18.0117 12.4491 17.9198 12.6102 17.7565C12.7713 17.5931 12.8601 17.3719 12.8568 17.1425V11.1425C12.8601 10.9108 12.7694 10.6877 12.6052 10.5239C12.4413 10.3603 12.218 10.2698 11.9863 10.2735Z" fill="#D4D4D8"/>
<path fill-rule="evenodd" clip-rule="evenodd" d="M12.8571 6.85714C12.8571 7.33049 12.4733 7.71429 12 7.71429C11.5267 7.71429 11.1429 7.33049 11.1429 6.85714C11.1429 6.3838 11.5267 6 12 6C12.4733 6 12.8571 6.3838 12.8571 6.85714Z" fill="#D4D4D8"/>
<path d="M12 0C5.38286 0 0 5.38286 0 12C0 18.6171 5.38286 24 12 24C18.6171 24 24 18.6171 24 12C24 5.38286 18.6171 0 12 0ZM12 1.71429C17.6909 1.71429 22.2857 6.30916 22.2857 12C22.2857 17.6908 17.6908 22.2857 12 22.2857C6.30916 22.2857 1.71429 17.6908 1.71429 12C1.71429 6.30916 6.30916 1.71429 12 1.71429Z" fill="#D4D4D8"/>
</svg>
