<?xml version="1.0" encoding="UTF-8"?><svg xmlns="http://www.w3.org/2000/svg" viewBox="0 0 1043.63 592.7"><defs><style>.d{fill:#fff;}</style></defs><g id="a"/><g id="b"><g id="c"><g><path class="d" d="M588.66,296.35c0,163.67-131.78,296.35-294.33,296.35S0,460.02,0,296.35,131.78,0,294.33,0s294.33,132.68,294.33,296.35"/><path class="d" d="M911.55,296.35c0,154.07-65.89,278.96-147.17,278.96s-147.17-124.9-147.17-278.96S683.11,17.39,764.39,17.39s147.17,124.9,147.17,278.96"/><path class="d" d="M1043.63,296.35c0,138.04-23.17,249.94-51.76,249.94s-51.76-111.9-51.76-249.94,23.17-249.94,51.76-249.94,51.76,111.9,51.76,249.94"/></g></g></g></svg>