<svg width="56" height="47" viewBox="0 0 56 47" fill="none" xmlns="http://www.w3.org/2000/svg">
<path d="M42.2583 14.3584C41.2251 13.7622 39.8819 13.7622 38.7454 14.3584L30.6863 18.9292L25.2104 21.9102L17.1513 26.481C16.1181 27.0772 14.775 27.0772 13.6384 26.481L7.23246 22.9038C6.19929 22.3076 5.47607 21.2146 5.47607 20.0222V12.9672C5.47607 11.7749 6.09597 10.6818 7.23246 10.0856L13.5351 6.60779C14.5682 6.01161 15.9115 6.01161 17.048 6.60779L23.3506 10.0856C24.3838 10.6818 25.107 11.7749 25.107 12.9672V17.538L30.583 14.4578V9.88686C30.583 8.6945 29.9631 7.60145 28.8266 7.00527L17.1513 0.447134C16.1181 -0.149045 14.775 -0.149045 13.6384 0.447134L1.75648 7.00527C0.619904 7.60145 0 8.6945 0 9.88686V23.1025C0 24.295 0.619904 25.3879 1.75648 25.9841L13.6384 32.5422C14.6716 33.1385 16.0148 33.1385 17.1513 32.5422L25.2104 28.0708L30.6863 24.9904L38.7454 20.519C39.7786 19.9228 41.1218 19.9228 42.2583 20.519L48.5609 23.9968C49.5941 24.5931 50.3174 25.686 50.3174 26.8785V33.9334C50.3174 35.1258 49.6974 36.2188 48.5609 36.815L42.2583 40.3922C41.2251 40.9884 39.8819 40.9884 38.7454 40.3922L32.4428 36.9144C31.4096 36.3182 30.6863 35.2251 30.6863 34.0328V29.462L25.2104 32.5422V37.1131C25.2104 38.3055 25.8303 39.3986 26.9668 39.9947L38.8487 46.5529C39.8819 47.149 41.2251 47.149 42.3616 46.5529L54.2435 39.9947C55.2768 39.3986 56 38.3055 56 37.1131V23.8975C56 22.705 55.3801 21.6121 54.2435 21.0159L42.2583 14.3584Z" fill="white"/>
</svg>
