<svg width="30" height="30" viewBox="0 0 30 30" fill="none" xmlns="http://www.w3.org/2000/svg">
<circle cx="15" cy="15" r="14.5" stroke="#D4D4D8"/>
<path d="M14.6349 6.34882C14.6772 6.24566 14.7493 6.1574 14.8419 6.09528C14.9345 6.03317 15.0434 6 15.1549 6C15.2664 6 15.3754 6.03317 15.468 6.09528C15.5606 6.1574 15.6326 6.24566 15.6749 6.34882L17.7999 11.4598C17.8397 11.5555 17.9051 11.6383 17.9889 11.6991C18.0727 11.76 18.1717 11.7966 18.2749 11.8048L23.7929 12.2468C24.2919 12.2868 24.4939 12.9098 24.1139 13.2348L19.9099 16.8368C19.8314 16.904 19.7729 16.9915 19.7408 17.0898C19.7087 17.188 19.7042 17.2932 19.7279 17.3938L21.0129 22.7788C21.0388 22.8869 21.032 23.0001 20.9935 23.1043C20.955 23.2085 20.8865 23.299 20.7966 23.3642C20.7067 23.4295 20.5995 23.4667 20.4885 23.4711C20.3775 23.4754 20.2677 23.4468 20.1729 23.3888L15.4479 20.5038C15.3597 20.45 15.2583 20.4216 15.1549 20.4216C15.0516 20.4216 14.9502 20.45 14.8619 20.5038L10.1369 23.3898C10.0422 23.4478 9.93239 23.4764 9.82139 23.4721C9.7104 23.4677 9.60319 23.4305 9.5133 23.3652C9.42342 23.3 9.3549 23.2095 9.31639 23.1053C9.27788 23.0011 9.27111 22.8879 9.29694 22.7798L10.5819 17.3938C10.6058 17.2932 10.6014 17.188 10.5693 17.0897C10.5372 16.9915 10.4786 16.9039 10.3999 16.8368L6.19594 13.2348C6.11175 13.1624 6.05085 13.0668 6.02089 12.9599C5.99092 12.8529 5.99324 12.7396 6.02755 12.634C6.06186 12.5284 6.12662 12.4353 6.2137 12.3664C6.30078 12.2975 6.40628 12.2559 6.51694 12.2468L12.0349 11.8048C12.1382 11.7966 12.2372 11.76 12.321 11.6991C12.4048 11.6383 12.4702 11.5555 12.5099 11.4598L14.6349 6.34882Z" stroke="#D4D4D8" stroke-width="1.5" stroke-linecap="round" stroke-linejoin="round"/>
</svg>
