<svg width="96" height="96" viewBox="0 0 96 96" fill="none" xmlns="http://www.w3.org/2000/svg">
<path d="M48.004 0C34.968 0 33.332 0.0570009 28.212 0.290001C23.102 0.524001 19.614 1.333 16.562 2.52C13.405 3.746 10.727 5.386 8.059 8.055C5.389 10.723 3.749 13.401 2.519 16.557C1.329 19.61 0.519 23.099 0.289 28.207C0.0599996 33.327 0 34.964 0 48C0 61.036 0.0580009 62.667 0.290001 67.787C0.525001 72.897 1.334 76.385 2.52 79.437C3.747 82.594 5.387 85.272 8.056 87.94C10.723 90.61 13.401 92.254 16.556 93.48C19.61 94.667 23.099 95.476 28.208 95.71C33.328 95.943 34.963 96 47.998 96C61.035 96 62.666 95.943 67.786 95.71C72.896 95.476 76.388 94.667 79.442 93.48C82.598 92.254 85.272 90.61 87.939 87.94C90.609 85.272 92.249 82.594 93.479 79.438C94.659 76.385 95.469 72.896 95.709 67.788C95.939 62.668 95.999 61.036 95.999 48C95.999 34.964 95.939 33.328 95.709 28.208C95.469 23.098 94.659 19.61 93.479 16.558C92.249 13.401 90.609 10.723 87.939 8.055C85.269 5.385 82.599 3.745 79.439 2.52C76.379 1.333 72.889 0.524001 67.779 0.290001C62.659 0.0570009 61.029 0 47.989 0H48.004ZM43.698 8.65C44.976 8.648 46.402 8.65 48.004 8.65C60.82 8.65 62.339 8.696 67.4 8.926C72.08 9.14 74.62 9.922 76.312 10.579C78.552 11.449 80.149 12.489 81.828 14.169C83.508 15.849 84.548 17.449 85.42 19.689C86.077 21.379 86.86 23.919 87.073 28.599C87.303 33.659 87.353 35.179 87.353 47.989C87.353 60.799 87.303 62.319 87.073 67.379C86.859 72.059 86.077 74.599 85.42 76.289C84.55 78.529 83.508 80.124 81.828 81.803C80.148 83.483 78.553 84.523 76.312 85.393C74.622 86.053 72.08 86.833 67.4 87.047C62.34 87.277 60.82 87.327 48.004 87.327C35.187 87.327 33.668 87.277 28.608 87.047C23.928 86.831 21.388 86.049 19.695 85.392C17.455 84.522 15.855 83.482 14.175 81.802C12.495 80.122 11.455 78.526 10.583 76.285C9.926 74.595 9.143 72.055 8.93 67.375C8.7 62.315 8.654 60.795 8.654 47.977C8.654 35.159 8.7 33.647 8.93 28.587C9.144 23.907 9.926 21.367 10.583 19.675C11.453 17.435 12.495 15.835 14.175 14.155C15.855 12.475 17.455 11.435 19.695 10.563C21.387 9.903 23.928 9.123 28.608 8.908C33.036 8.708 34.752 8.648 43.698 8.638V8.65ZM73.626 16.62C70.446 16.62 67.866 19.197 67.866 22.378C67.866 25.558 70.446 28.138 73.626 28.138C76.806 28.138 79.386 25.558 79.386 22.378C79.386 19.198 76.806 16.618 73.626 16.618V16.62ZM48.004 23.35C34.391 23.35 23.354 34.387 23.354 48C23.354 61.613 34.391 72.645 48.004 72.645C61.617 72.645 72.65 61.613 72.65 48C72.65 34.387 61.616 23.35 48.003 23.35H48.004ZM48.004 32C56.84 32 64.004 39.163 64.004 48C64.004 56.836 56.84 64 48.004 64C39.167 64 32.004 56.836 32.004 48C32.004 39.163 39.167 32 48.004 32V32Z" fill="white"/>
</svg>
