<?xml version="1.0" encoding="UTF-8"?>
<svg width="752pt" height="752pt" version="1.1" viewBox="0 0 752 752" xmlns="http://www.w3.org/2000/svg">
 <g fill="#fff">
  <path d="m398.02 379.08c52.852-52.566 108.92-101.63 159.88-156.28 15.629-16.672-9.4727-41.816-25.102-25.102-51.004 54.461-107.03 103.48-159.88 156.28-16.242 16.148 8.8555 41.25 25.102 25.102z"/>
  <path d="m568.04 305.44c0.89844-34.57 2.6055-69.711-2.6992-104.19l-4.7344 17.285 0.51953-0.61719c11.223-12.078 2.5117-28.652-12.551-30.309-33.152-3.5508-66.918-1.375-99.879 0-22.777 0.94531-22.922 36.465 0 35.52 33.152-1.375 66.965-3.5508 99.879 0l-12.551-30.309c-10.941 11.793-3.3164 37.035-3.0312 51.809 0.37891 20.223 0 40.395-0.66406 60.617-0.56641 22.828 34.949 22.828 35.52 0z"/>
  <path d="m348.06 190.07c-47.359 0-94.715-1.2305-141.7 1.5156-7.0078 0.37891-15.961 5.1602-17.098 13.023-8.2891 55.363-4.3555 113.66-5.3984 169.97-1.0898 56.828-7.1055 117.83 1.3242 174.18l4.7344-17.285-0.61719 0.66406c-11.359 12.027-2.7383 28.555 12.367 30.305 50.957 5.3984 105.8 0 157.23 0.42578 62.086 0.37891 124.27 1.8477 186.26-1.9414 7.0078-0.23438 16.008-4.9727 17.145-13.023 6.5352-45.227 5.8242-92.113 7.0547-137.72 0.61719-22.875-34.902-22.875-35.52 0-1.1367 42.055 0 87.754-5.7773 128.29l17.098-13.07c-61.992 3.7891-124.17 2.3203-186.26 1.9414-51.434-0.28125-106.04 4.9258-157.23-0.42188l12.598 30.309c5.4453-6.0156 5.4453-10.422 5.1641-17.949-0.71094-15.105-2.7461-29.836-2.5586-45.086 0-12.359 0.66406-24.672 0.94531-37.035 0.51953-23.68 0.89844-47.359 1.3242-71.039l1.4688-76.91c0.61719-31.918-1.8477-63.461 2.8906-95.285l-17.145 13.07c47.074-2.7461 94.715-1.6562 141.7-1.5156 22.875 0 22.922-35.473 0-35.52z"/>
 </g>
</svg>
